<svg xmlns="http://www.w3.org/2000/svg" xmlns:svg="http://www.w3.org/2000/svg" id="svg5213" width="160" height="150" version="1.1" viewBox="0 0 160 150"><metadata id="metadata5218"/><g id="layer1" transform="translate(0,-902.36216)"><g id="g4195" transform="translate(-163,-22.091209)"><g id="g4665" transform="translate(112.84824,40.419688)"><path style="fill:#fff;fill-opacity:1;stroke:#0ff;stroke-width:0;stroke-miterlimit:4;stroke-dasharray:none;stroke-dashoffset:0" id="path4192-4-7-7-8-9-4-4" d="m 179.34324,975.67647 -49.17331,28.41123 -49.191507,-28.37971 -0.0182,-56.79095 49.173306,-28.41124 49.19151,28.37971 z"/><path style="fill:#000;fill-rule:evenodd;stroke:#000;stroke-width:0;stroke-linecap:butt;stroke-linejoin:miter;stroke-miterlimit:4;stroke-dasharray:none;stroke-opacity:1" id="path4915-7-9-6-1" d="m 145.02315,996.18426 35.12861,-20.15972 0,-57.46124 -0.6656,-0.034 -1.84785,17.63703 -0.59828,38.06532 -21.60728,13.21387 -10.70366,8.23383 z"/><path style="fill:#000;fill-rule:evenodd;stroke:#000;stroke-width:0;stroke-linecap:butt;stroke-linejoin:miter;stroke-miterlimit:4;stroke-dasharray:none;stroke-opacity:1" id="path4915-7-1-8-6-5" d="m 115.32946,996.36379 -35.12861,-20.15972 0,-57.46124 0.6656,-0.034 1.84785,17.63702 0.59828,38.06533 21.60728,13.21387 10.70366,8.23382 z"/><path style="fill:#000;fill-rule:evenodd;stroke:#000;stroke-width:0;stroke-linecap:butt;stroke-linejoin:miter;stroke-miterlimit:4;stroke-dasharray:none;stroke-opacity:1" id="path4915-7-3-1-36-9" d="m 165.00964,927.23258 -35.12861,20.15972 0.10401,56.5251 0.6656,0.1381 1.74384,-16.80497 0.59828,-38.06532 21.60729,-13.21388 10.70366,-8.23382 z"/><path style="fill:#000;fill-rule:evenodd;stroke:#000;stroke-width:0;stroke-linecap:butt;stroke-linejoin:miter;stroke-miterlimit:4;stroke-dasharray:none;stroke-opacity:1" id="path4915-7-0-5-8-0" d="m 95.30945,910.04843 35.02314,-20.34241 49.76289,28.73062 -0.30334,0.59343 -16.19805,-7.21823 -33.26467,-18.51453 -22.24719,12.10551 -12.48253,5.15273 z"/><path style="fill:#000;fill-rule:evenodd;stroke:#000;stroke-width:0;stroke-linecap:butt;stroke-linejoin:miter;stroke-miterlimit:4;stroke-dasharray:none;stroke-opacity:1" id="path4915-1-1-8-4-9-9-2" d="m 80.44816,918.4237 35.12861,20.15972 -0.66422,0.54881 -10.68532,-4.22798 -16.49868,-9.76799 -7.57445,-6.20764 c -1.5e-4,-0.21972 -0.0477,-0.46427 0.29406,-0.50492 z"/><path style="fill:none;fill-rule:evenodd;stroke:#000;stroke-width:1;stroke-linecap:butt;stroke-linejoin:miter;stroke-miterlimit:4;stroke-dasharray:none;stroke-opacity:1" id="path25859-2-23-2" d="m 110.54463,993.10728 19.84881,11.07002 18.55497,-10.90466"/><path style="fill:none;fill-rule:evenodd;stroke:#000;stroke-width:1;stroke-linecap:butt;stroke-linejoin:miter;stroke-miterlimit:4;stroke-dasharray:none;stroke-opacity:1" id="path25861-0-3-93" d="m 99.58769,908.25012 -19.06448,10.5004"/></g><g id="g4189" transform="translate(153.85966,0)"><text style="font-style:normal;font-variant:normal;font-weight:400;font-stretch:normal;font-size:11.4691515px;line-height:125%;font-family:Roboto;-inkscape-font-specification:'Roboto, Normal';text-align:start;letter-spacing:0;word-spacing:0;writing-mode:lr-tb;text-anchor:start;fill:#3465a4;fill-opacity:1;stroke:none;stroke-width:1px;stroke-linecap:butt;stroke-linejoin:miter;stroke-opacity:1" id="text4887-9-8-3-4-5" x="11.679" y="1068.577" xml:space="preserve"><tspan id="tspan4889-1-8-0-8-1" x="11.679" y="1068.577" style="font-style:normal;font-variant:normal;font-weight:400;font-stretch:normal;font-size:20.85300255px;line-height:125%;font-family:'Open Sans';-inkscape-font-specification:'Open Sans';text-align:start;writing-mode:lr-tb;text-anchor:start;fill:#3465a4;fill-opacity:1">WhiteboxTools</tspan></text><text style="font-style:normal;font-weight:400;font-size:29.6489315px;line-height:125%;font-family:sans-serif;letter-spacing:0;word-spacing:0;fill:#3465a4;fill-opacity:1;stroke:none;stroke-width:1px;stroke-linecap:butt;stroke-linejoin:miter;stroke-opacity:1" id="text6341-8" x="156.262" y="1052.793" xml:space="preserve"><tspan id="tspan6343-6" x="156.262" y="1052.793" style="font-style:normal;font-variant:normal;font-weight:400;font-stretch:normal;font-size:7.41223288px;font-family:'Open Sans';-inkscape-font-specification:'Open Sans';fill:#3465a4;fill-opacity:1">TM</tspan></text></g></g></g></svg>