<svg xmlns="http://www.w3.org/2000/svg" xmlns:svg="http://www.w3.org/2000/svg" id="svg5213" width="125" height="125" version="1.1" viewBox="0 0 125 125"><metadata id="metadata5218"/><g id="layer1" transform="translate(0,-927.36216)"><g id="g1096" transform="translate(138.16378,16.392313)"><rect style="fill:none;fill-opacity:1;fill-rule:evenodd" id="rect152" width="125" height="125" x="0" y="927.362"/><g id="g4195" transform="translate(4.1350158)"><g id="g4665" transform="translate(-71.78678,42.63244)"><path style="fill:#fff;fill-opacity:1;stroke:#0ff;stroke-width:0;stroke-miterlimit:4;stroke-dasharray:none;stroke-dashoffset:0" id="path4192-4-7-7-8-9-4-4" d="m 179.34324,975.67647 -49.17331,28.41123 -49.191507,-28.37971 -0.0182,-56.79095 49.173306,-28.41124 49.19151,28.37971 z"/><path style="fill:#000;fill-rule:evenodd;stroke:#000;stroke-width:0;stroke-linecap:butt;stroke-linejoin:miter;stroke-miterlimit:4;stroke-dasharray:none;stroke-opacity:1" id="path4915-7-9-6-1" d="m 145.02315,996.18426 35.12861,-20.15972 V 918.5633 l -0.6656,-0.034 -1.84785,17.63703 -0.59828,38.06532 -21.60728,13.21387 -10.70366,8.23383 z"/><path style="fill:#000;fill-rule:evenodd;stroke:#000;stroke-width:0;stroke-linecap:butt;stroke-linejoin:miter;stroke-miterlimit:4;stroke-dasharray:none;stroke-opacity:1" id="path4915-7-1-8-6-5" d="M 115.32946,996.36379 80.20085,976.20407 v -57.46124 l 0.6656,-0.034 1.84785,17.63702 0.59828,38.06533 21.60728,13.21387 10.70366,8.23382 z"/><path style="fill:#000;fill-rule:evenodd;stroke:#000;stroke-width:0;stroke-linecap:butt;stroke-linejoin:miter;stroke-miterlimit:4;stroke-dasharray:none;stroke-opacity:1" id="path4915-7-3-1-36-9" d="m 165.00964,927.23258 -35.12861,20.15972 0.10401,56.5251 0.6656,0.1381 1.74384,-16.80497 0.59828,-38.06532 21.60729,-13.21388 10.70366,-8.23382 z"/><path style="fill:#000;fill-rule:evenodd;stroke:#000;stroke-width:0;stroke-linecap:butt;stroke-linejoin:miter;stroke-miterlimit:4;stroke-dasharray:none;stroke-opacity:1" id="path4915-7-0-5-8-0" d="m 95.30945,910.04843 35.02314,-20.34241 49.76289,28.73062 -0.30334,0.59343 -16.19805,-7.21823 -33.26467,-18.51453 -22.24719,12.10551 -12.48253,5.15273 z"/><path style="fill:#000;fill-rule:evenodd;stroke:#000;stroke-width:0;stroke-linecap:butt;stroke-linejoin:miter;stroke-miterlimit:4;stroke-dasharray:none;stroke-opacity:1" id="path4915-1-1-8-4-9-9-2" d="m 80.44816,918.4237 35.12861,20.15972 -0.66422,0.54881 -10.68532,-4.22798 -16.49868,-9.76799 -7.57445,-6.20764 c -1.5e-4,-0.21972 -0.0477,-0.46427 0.29406,-0.50492 z"/><path style="fill:none;fill-rule:evenodd;stroke:#000;stroke-width:1;stroke-linecap:butt;stroke-linejoin:miter;stroke-miterlimit:4;stroke-dasharray:none;stroke-opacity:1" id="path25859-2-23-2" d="m 110.54463,993.10728 19.84881,11.07002 18.55497,-10.90466"/><path style="fill:none;fill-rule:evenodd;stroke:#000;stroke-width:1;stroke-linecap:butt;stroke-linejoin:miter;stroke-miterlimit:4;stroke-dasharray:none;stroke-opacity:1" id="path25861-0-3-93" d="m 99.58769,908.25012 -19.06448,10.5004"/></g></g></g></g></svg>